<svg id="Layer_1" data-name="Layer 1" xmlns="http://www.w3.org/2000/svg" viewBox="0 0 578.88 697.97"><defs><style>.cls-1{fill:#fdf0d5;}.cls-2{fill:#003049;}.cls-3{fill:#fdcc68;}.cls-4{fill:none;stroke:#003049;stroke-linecap:round;stroke-linejoin:round;}</style></defs><path class="cls-1" d="M446.47,593.28c-7.2-3.47-15.31-4.41-23-6.48-27.31-7.35-49.35-29.59-59.66-55.92s-9.62-56.18-1.47-83.26c6.28-20.89,16.71-40.13,27.24-59.31-16.35.23-31-6.76-41.73-18-.79,1.49-1.61,3-2.45,4.41-11.48,19.6-27.08,36.62-37.8,56.64-23.36,43.6-20.13,100.16,8,140.82,21.24,30.67,55.92,51.24,92.68,56.68,11.43,1.69,33.21,5.94,43.61-1.34C465.31,618.15,459.55,599.59,446.47,593.28Z" transform="translate(-171.41 -155.99)"/><path class="cls-2" d="M389.56,388.31c3.45-6.29,6.91-12.56,10.24-18.88C413.28,343.8,425,316,424.19,287.06s-16.84-59.17-44.22-68.6c-11-3.8-23.57-3.94-34.18.95s-18.92,15.13-20.2,26.74C323,270,347.47,287.35,356,309.74c7.49,19.67,1.84,41.85-8.16,60.59C358.58,381.55,373.21,388.54,389.56,388.31Z" transform="translate(-171.41 -155.99)"/><path class="cls-1" d="M481.34,474.51C510.74,446.11,519,403,520.92,363c2.48-51.86-10.21-104.89-38.43-148.71a78.72,78.72,0,0,1,33.75,11.45c19.27-16.93,38.2-33.25,63.79-31.65-2-14.86-4-27.58-7.11-38.07,38,21.79,67.59,60.12,87.42,99.17,43.71,86.06,51.56,190.12,19.06,281-7.81,21.84-17.87,43-31,62-25.75,37.34-58.07,71.67-96.75,95.78-27.76,17.31-61.13,27.7-94,23.86-44.24-5.17-74.07-31.77-92.43-70.56-8.91-18.82-14.52-39.64-11.21-60.54,4.67-29.55,26.28-54,51.1-70.67,20.11-13.55,44.69-17.89,64.47-31.8A99.42,99.42,0,0,0,481.34,474.51Z" transform="translate(-171.41 -155.99)"/><path class="cls-2" d="M655.61,550.55c-10,18.16-32.76,8.45-50.08,12.26-27.34,6.28-25.12,43.1-4,56.61a170.69,170.69,0,0,1,18.59,15.09,402.65,402.65,0,0,0,28.22-36.3c13.17-19.09,23.23-40.2,31-62a335.88,335.88,0,0,0,13.21-48.06C666.54,499,668.94,529.09,655.61,550.55Z" transform="translate(-171.41 -155.99)"/><path class="cls-2" d="M487.87,481.21C502.3,471.15,517.59,450.47,508,433c-6,15.51-14.48,29.78-26.62,41.51a99.42,99.42,0,0,1-11.83,9.77c-1.84,1.29-3.73,2.48-5.65,3.62A35.76,35.76,0,0,0,487.87,481.21Z" transform="translate(-171.41 -155.99)"/><path class="cls-3" d="M549.11,241.78a29.4,29.4,0,0,0-43.83,12.5c5.37,8.32,15.66,13.59,25.26,11.16S548.36,251.65,549.11,241.78Z" transform="translate(-171.41 -155.99)"/><path class="cls-3" d="M605,207.3a29.4,29.4,0,0,0-37.72,25.58c7.7,6.22,19.12,8,27.48,2.7S607.42,216.91,605,207.3Z" transform="translate(-171.41 -155.99)"/><path class="cls-2" d="M529,236.75a28.13,28.13,0,0,0-4.73.87,29.89,29.89,0,0,0-19,16.66c5.37,8.32,15.66,13.59,25.26,11.16a18.71,18.71,0,0,0,2-.66C535.7,255.83,534.06,244.51,529,236.75Z" transform="translate(-171.41 -155.99)"/><path class="cls-2" d="M589.53,207a29.08,29.08,0,0,0-9.42,4.13,29.88,29.88,0,0,0-12.79,21.75c7.7,6.22,19.12,8,27.48,2.7.46-.3.92-.63,1.36-1C599.1,225.48,599.31,213.44,589.53,207Z" transform="translate(-171.41 -155.99)"/><path class="cls-4" d="M556.33,251.21a9.37,9.37,0,0,0,10.92-4.54" transform="translate(-171.41 -155.99)"/><path class="cls-4" d="M562.12,251.12l3,7.44c.72,1.78,1.51,3.65,3.07,4.77a5.29,5.29,0,0,0,7.6-2.2" transform="translate(-171.41 -155.99)"/><path class="cls-4" d="M565.26,259c.74,2.19,1.2,5.36-.12,7.12a5.76,5.76,0,0,1-5.9,2.06" transform="translate(-171.41 -155.99)"/><path class="cls-4" d="M517.8,282.09a93.22,93.22,0,0,1,28.31-14.42" transform="translate(-171.41 -155.99)"/><path class="cls-4" d="M525.41,294.9A64.29,64.29,0,0,1,550,274.23" transform="translate(-171.41 -155.99)"/><path class="cls-4" d="M583.31,249.27a101.3,101.3,0,0,1,38.8-7.78" transform="translate(-171.41 -155.99)"/><path class="cls-4" d="M586.37,257.52a45.46,45.46,0,0,1,37.53,2.23" transform="translate(-171.41 -155.99)"/><path class="cls-1" d="M533.93,359.72c-12.23,3.43-24.58-4.87-33.49-13.93-12.85-13-23-28.51-35.21-42.12s-27.46-25.74-45.48-29c-6.48-1.16-13.48-1-19.22,2.17s-9.72,10.16-7.94,16.49c2.34,8.32,12.2,11.38,20.27,14.47a82.36,82.36,0,0,1,34.8,25.45c8.38,10.5,14,22.86,20.06,34.86s12.69,24,22.55,33.14,23.53,15,36.75,12.65" transform="translate(-171.41 -155.99)"/><path class="cls-2" d="M401.63,296.3c-4.28,3.94,3.21,10.93,7.5,7S405.92,292.35,401.63,296.3Z" transform="translate(-171.41 -155.99)"/><path class="cls-2" d="M398.37,285.71c-4.28,3.94,3.21,10.93,7.5,7S402.66,281.76,398.37,285.71Z" transform="translate(-171.41 -155.99)"/><path class="cls-2" d="M408.31,279.7c-4.28,3.94,3.21,10.93,7.5,7S412.6,275.75,408.31,279.7Z" transform="translate(-171.41 -155.99)"/><path class="cls-2" d="M412.4,291.08c-4.28,3.94,3.21,10.93,7.5,7S416.69,287.13,412.4,291.08Z" transform="translate(-171.41 -155.99)"/><path class="cls-4" d="M456.8,347.24c6.94,15.19,14,30.54,24.4,43.59s24.69,23.78,41.16,26.53" transform="translate(-171.41 -155.99)"/><path class="cls-1" d="M651.6,360.72c12.51-2.22,20-15.07,24.12-27.09,5.9-17.33,8.3-35.66,13.42-53.24s13.56-35.1,28.39-45.84c5.33-3.85,11.69-6.79,18.26-6.39s13.16,4.93,14.3,11.41c1.51,8.51-6,15.54-12,21.83a82.57,82.57,0,0,0-20.3,38.05c-3,13.1-2.71,26.68-2.92,40.11s-1,27.14-5.92,39.64S694.31,403,681.36,406.56" transform="translate(-171.41 -155.99)"/><path class="cls-2" d="M740.37,242.79c6.63-.06,6.64,10.25,0,10.32S733.72,242.86,740.37,242.79Z" transform="translate(-171.41 -155.99)"/><path class="cls-2" d="M734.07,232.76c6.63-.06,6.63,10.25,0,10.32S727.41,232.83,734.07,232.76Z" transform="translate(-171.41 -155.99)"/><path class="cls-2" d="M721.28,235.21c6.63-.06,6.63,10.25,0,10.32S714.63,235.28,721.28,235.21Z" transform="translate(-171.41 -155.99)"/><path class="cls-2" d="M727.6,246.41c6.63-.07,6.63,10.25,0,10.31S721,246.47,727.6,246.41Z" transform="translate(-171.41 -155.99)"/><path class="cls-4" d="M715.66,316c.33,16.69.65,33.58-3.06,49.86S700.69,398,687.06,407.62" transform="translate(-171.41 -155.99)"/><path class="cls-1" d="M475.1,511c-31-27.77-78.78-35-116.56-17.58s-63.38,58.41-62.41,100c-36.74,4.6-71.78,10.81-108.52,15.41-5.42.68-11.53,1.78-14.52,6.35-3.52,5.39-.49,13.08,4.78,16.78s12,4.43,18.4,5a964.57,964.57,0,0,0,128.57,2.55C390.57,636.43,439.59,566.42,475.1,511Z" transform="translate(-171.41 -155.99)"/><path class="cls-4" d="M192,622.55a16,16,0,0,0-16.15,6.88" transform="translate(-171.41 -155.99)"/><path class="cls-4" d="M189.36,613.81a16.44,16.44,0,0,0-17.45,3.71" transform="translate(-171.41 -155.99)"/><path class="cls-4" d="M352.59,496.57c-33.48,19.39-55.45,57.23-55.68,95.91" transform="translate(-171.41 -155.99)"/><path class="cls-4" d="M197.29,636c29.05,2.72,58.17,5.44,87.35,5s60.26-2.46,86-13.84" transform="translate(-171.41 -155.99)"/><path class="cls-1" d="M569.46,616.65c13.35,39.4,1.16,86.19-29.7,114.07s-78.65,35.28-116.49,18c-18.69,32-38.19,61.74-56.88,93.69-2.76,4.72-6.17,9.91-11.55,10.86-6.34,1.11-12.21-4.7-13.54-11s.64-12.77,2.65-18.88a963.34,963.34,0,0,1,48.26-119.2C420.91,645,504.56,627.49,569.46,616.65Z" transform="translate(-171.41 -155.99)"/><path class="cls-4" d="M355.49,833.06a16,16,0,0,1-12.67,12.13" transform="translate(-171.41 -155.99)"/><path class="cls-4" d="M362.52,838.87a16.47,16.47,0,0,1-10.29,14.59" transform="translate(-171.41 -155.99)"/><path class="cls-4" d="M534.53,735c-31,23.15-74.43,28.45-110.08,13.44a265.26,265.26,0,0,0-30.81,47.51" transform="translate(-171.41 -155.99)"/><path class="cls-4" d="M345.22,822.85c8.94-27.78,17.9-55.62,29.79-82.27s26-54.43,46.58-73.65" transform="translate(-171.41 -155.99)"/></svg>